<?xml version="1.0" encoding="UTF-8" standalone="no"?>
<!-- Created with Inkscape (http://www.inkscape.org/) -->

<svg
   xmlns:dc="http://purl.org/dc/elements/1.1/"
   xmlns:cc="http://creativecommons.org/ns#"
   xmlns:rdf="http://www.w3.org/1999/02/22-rdf-syntax-ns#"
   xmlns:svg="http://www.w3.org/2000/svg"
   xmlns="http://www.w3.org/2000/svg"
   xmlns:xlink="http://www.w3.org/1999/xlink"
   xmlns:sodipodi="http://sodipodi.sourceforge.net/DTD/sodipodi-0.dtd"
   xmlns:inkscape="http://www.inkscape.org/namespaces/inkscape"
   width="210mm"
   height="297mm"
   id="svg2"
   version="1.1"
   inkscape:version="0.47 r22583"
   sodipodi:docname="Documento nuevo 1">
  <defs
     id="defs4">
    <inkscape:perspective
       sodipodi:type="inkscape:persp3d"
       inkscape:vp_x="0 : 526.18109 : 1"
       inkscape:vp_y="0 : 1000 : 0"
       inkscape:vp_z="744.09448 : 526.18109 : 1"
       inkscape:persp3d-origin="372.04724 : 350.78739 : 1"
       id="perspective10" />
    <inkscape:perspective
       id="perspective3598"
       inkscape:persp3d-origin="0.5 : 0.33333333 : 1"
       inkscape:vp_z="1 : 0.5 : 1"
       inkscape:vp_y="0 : 1000 : 0"
       inkscape:vp_x="0 : 0.5 : 1"
       sodipodi:type="inkscape:persp3d" />
    <inkscape:perspective
       id="perspective3622"
       inkscape:persp3d-origin="0.5 : 0.33333333 : 1"
       inkscape:vp_z="1 : 0.5 : 1"
       inkscape:vp_y="0 : 1000 : 0"
       inkscape:vp_x="0 : 0.5 : 1"
       sodipodi:type="inkscape:persp3d" />
    <inkscape:perspective
       id="perspective3636"
       inkscape:persp3d-origin="0.5 : 0.33333333 : 1"
       inkscape:vp_z="1 : 0.5 : 1"
       inkscape:vp_y="0 : 1000 : 0"
       inkscape:vp_x="0 : 0.5 : 1"
       sodipodi:type="inkscape:persp3d" />
  </defs>
  <sodipodi:namedview
     id="base"
     pagecolor="#ffffff"
     bordercolor="#666666"
     borderopacity="1.0"
     inkscape:pageopacity="0.0"
     inkscape:pageshadow="2"
     inkscape:zoom="1"
     inkscape:cx="409.04692"
     inkscape:cy="716.06358"
     inkscape:document-units="px"
     inkscape:current-layer="layer1"
     showgrid="false"
     inkscape:window-width="1280"
     inkscape:window-height="934"
     inkscape:window-x="-4"
     inkscape:window-y="-4"
     inkscape:window-maximized="1" />
  <metadata
     id="metadata7">
    <rdf:RDF>
      <cc:Work
         rdf:about="">
        <dc:format>image/svg+xml</dc:format>
        <dc:type
           rdf:resource="http://purl.org/dc/dcmitype/StillImage" />
        <dc:title></dc:title>
      </cc:Work>
    </rdf:RDF>
  </metadata>
  <g
     inkscape:label="Capa 1"
     inkscape:groupmode="layer"
     id="layer1">
    <rect
       style="opacity:0.78181817;fill:#b3b3b3;fill-opacity:1;stroke:#000000"
       id="rect2816"
       width="222.85715"
       height="111.42857"
       x="40"
       y="369.50504"
       ry="31.428572" />
    <image
       y="365.50504"
       x="-42.57143"
       id="image3600"
       height="48"
       width="48"
       xlink:href="file:///Z:/OpilionEntrada/web/img/comments.jpg" />
    <g
       id="g3650">
      <path
         d="m 229.28572,317.00504 a 40.357143,40.357143 0 1 1 -80.71429,0 40.357143,40.357143 0 1 1 80.71429,0 z"
         sodipodi:ry="40.357143"
         sodipodi:rx="40.357143"
         sodipodi:cy="317.00504"
         sodipodi:cx="188.92857"
         id="path3604"
         style="opacity:0.78181816999999998;fill:#c7d1db;fill-opacity:1;stroke:#000000;stroke-opacity:0.74901960999999995"
         sodipodi:type="arc" />
      <path
         transform="matrix(0.94755245,0,0,0.94755245,9.9088412,16.626138)"
         sodipodi:type="arc"
         style="opacity:0.78181816999999998;fill:#939faf;fill-opacity:1;stroke:#000000;stroke-opacity:0.74901960999999984"
         id="path3606"
         sodipodi:cx="188.92857"
         sodipodi:cy="317.00504"
         sodipodi:rx="40.357143"
         sodipodi:ry="40.357143"
         d="m 229.28572,317.00504 a 40.357143,40.357143 0 1 1 -80.71429,0 40.357143,40.357143 0 1 1 80.71429,0 z" />
      <path
         id="path3608"
         d="M 188.9375 278.75 C 171.6075 278.75 156.97629 290.288 152.28125 306.09375 C 155.15005 317.98729 170.50109 327.0625 189.03125 327.0625 C 207.35342 327.0625 222.57458 318.19684 225.6875 306.5 C 221.12389 290.48654 206.4152 278.75 188.9375 278.75 z "
         style="opacity:0.78181816999999998;fill:#e9eef2;fill-opacity:1;stroke:none" />
    </g>
    <image
       y="253.5701"
       x="264.55078"
       id="image3624"
       height="128"
       width="128"
       xlink:href="file:///Z:/OpilionEntrada/web/img/ico_proceso.png" />
    <image
       y="215.30565"
       x="-3.6807046"
       id="image3638"
       height="51"
       width="51"
       xlink:href="file:///Z:/OpilionEntrada/web/img/add.png" />
    <flowRoot
       xml:space="preserve"
       id="flowRoot3642"
       style="font-size:22px;font-style:normal;font-variant:normal;font-weight:normal;font-stretch:normal;text-align:start;line-height:125%;writing-mode:lr-tb;text-anchor:start;fill:#000000;fill-opacity:0.95492434;stroke:none;font-family:Action Jackson;-inkscape-font-specification:Action Jackson"
       transform="matrix(3.1729287,0,0,3.1729287,-744.42633,-629.71655)"><flowRegion
         id="flowRegion3644"><rect
           id="rect3646"
           width="155.56349"
           height="56.568542"
           x="259.60919"
           y="283.63611"
           style="font-size:22px;font-style:normal;font-variant:normal;font-weight:normal;font-stretch:normal;text-align:start;line-height:125%;writing-mode:lr-tb;text-anchor:start;fill:#000000;fill-opacity:0.95492434;font-family:Action Jackson;-inkscape-font-specification:Action Jackson" /></flowRegion><flowPara
         id="flowPara3648"
         style="font-size:22px;font-style:normal;font-variant:normal;font-weight:normal;font-stretch:normal;text-align:start;line-height:125%;writing-mode:lr-tb;text-anchor:start;fill:#000000;fill-opacity:0.95492434;font-family:Action Jackson;-inkscape-font-specification:Action Jackson">1</flowPara></flowRoot>    <g
       id="g3655"
       transform="translate(140.71425,0)">
      <path
         sodipodi:type="arc"
         style="opacity:0.78181817;fill:#c7d1db;fill-opacity:1;stroke:#000000;stroke-opacity:0.74901961"
         id="path3657"
         sodipodi:cx="188.92857"
         sodipodi:cy="317.00504"
         sodipodi:rx="40.357143"
         sodipodi:ry="40.357143"
         d="m 229.28572,317.00504 c 0,22.28863 -18.06851,40.35714 -40.35715,40.35714 -22.28863,0 -40.35714,-18.06851 -40.35714,-40.35714 0,-22.28864 18.06851,-40.35715 40.35714,-40.35715 22.28864,0 40.35715,18.06851 40.35715,40.35715 z" />
      <path
         d="m 229.28572,317.00504 c 0,22.28863 -18.06851,40.35714 -40.35715,40.35714 -22.28863,0 -40.35714,-18.06851 -40.35714,-40.35714 0,-22.28864 18.06851,-40.35715 40.35714,-40.35715 22.28864,0 40.35715,18.06851 40.35715,40.35715 z"
         sodipodi:ry="40.357143"
         sodipodi:rx="40.357143"
         sodipodi:cy="317.00504"
         sodipodi:cx="188.92857"
         id="path3659"
         style="opacity:0.78181817;fill:#939faf;fill-opacity:1;stroke:#000000;stroke-opacity:0.74901961"
         sodipodi:type="arc"
         transform="matrix(0.94755245,0,0,0.94755245,9.9088412,16.626138)" />
      <path
         style="opacity:0.78181817;fill:#e9eef2;fill-opacity:1;stroke:none"
         d="m 188.9375,278.75 c -17.33,0 -31.96121,11.538 -36.65625,27.34375 2.8688,11.89354 18.21984,20.96875 36.75,20.96875 18.32217,0 33.54333,-8.86566 36.65625,-20.5625 -4.56361,-16.01346 -19.2723,-27.75 -36.75,-27.75 z"
         id="path3661" />
    </g>
    <g
       transform="translate(276.47875,0)"
       id="g3663">
      <path
         d="m 229.28572,317.00504 c 0,22.28863 -18.06851,40.35714 -40.35715,40.35714 -22.28863,0 -40.35714,-18.06851 -40.35714,-40.35714 0,-22.28864 18.06851,-40.35715 40.35714,-40.35715 22.28864,0 40.35715,18.06851 40.35715,40.35715 z"
         sodipodi:ry="40.357143"
         sodipodi:rx="40.357143"
         sodipodi:cy="317.00504"
         sodipodi:cx="188.92857"
         id="path3665"
         style="opacity:0.78181817;fill:#c7d1db;fill-opacity:1;stroke:#000000;stroke-opacity:0.74901961"
         sodipodi:type="arc" />
      <path
         transform="matrix(0.94755245,0,0,0.94755245,9.9088412,16.626138)"
         sodipodi:type="arc"
         style="opacity:0.78181817;fill:#939faf;fill-opacity:1;stroke:#000000;stroke-opacity:0.74901961"
         id="path3667"
         sodipodi:cx="188.92857"
         sodipodi:cy="317.00504"
         sodipodi:rx="40.357143"
         sodipodi:ry="40.357143"
         d="m 229.28572,317.00504 c 0,22.28863 -18.06851,40.35714 -40.35715,40.35714 -22.28863,0 -40.35714,-18.06851 -40.35714,-40.35714 0,-22.28864 18.06851,-40.35715 40.35714,-40.35715 22.28864,0 40.35715,18.06851 40.35715,40.35715 z" />
      <path
         id="path3669"
         d="m 188.9375,278.75 c -17.33,0 -31.96121,11.538 -36.65625,27.34375 2.8688,11.89354 18.21984,20.96875 36.75,20.96875 18.32217,0 33.54333,-8.86566 36.65625,-20.5625 -4.56361,-16.01346 -19.2723,-27.75 -36.75,-27.75 z"
         style="opacity:0.78181817;fill:#e9eef2;fill-opacity:1;stroke:none" />
    </g>
    <path
       d="m 229.28572,317.00504 a 40.357143,40.357143 0 1 1 -80.71429,0 40.357143,40.357143 0 1 1 80.71429,0 z"
       sodipodi:ry="40.357143"
       sodipodi:rx="40.357143"
       sodipodi:cy="317.00504"
       sodipodi:cx="188.92857"
       id="path3673"
       style="opacity:0.76818185;fill:#c7d1db;fill-opacity:1;stroke:#b3b3b3;stroke-opacity:0.74901960999999984"
       sodipodi:type="arc" />
    <g
       transform="translate(0.71425,-91)"
       id="g3682">
      <path
         d="m 229.28572,317.00504 c 0,22.28863 -18.06851,40.35714 -40.35715,40.35714 -22.28863,0 -40.35714,-18.06851 -40.35714,-40.35714 0,-22.28864 18.06851,-40.35715 40.35714,-40.35715 22.28864,0 40.35715,18.06851 40.35715,40.35715 z"
         sodipodi:ry="40.357143"
         sodipodi:rx="40.357143"
         sodipodi:cy="317.00504"
         sodipodi:cx="188.92857"
         id="path3684"
         style="opacity:0.78181817;fill:#c7d1db;fill-opacity:1;stroke:#000000;stroke-opacity:0.74901961"
         sodipodi:type="arc" />
      <path
         transform="matrix(0.94755245,0,0,0.94755245,9.9088412,16.626138)"
         sodipodi:type="arc"
         style="opacity:0.78181817;fill:#939faf;fill-opacity:1;stroke:#000000;stroke-opacity:0.74901961"
         id="path3686"
         sodipodi:cx="188.92857"
         sodipodi:cy="317.00504"
         sodipodi:rx="40.357143"
         sodipodi:ry="40.357143"
         d="m 229.28572,317.00504 c 0,22.28863 -18.06851,40.35714 -40.35715,40.35714 -22.28863,0 -40.35714,-18.06851 -40.35714,-40.35714 0,-22.28864 18.06851,-40.35715 40.35714,-40.35715 22.28864,0 40.35715,18.06851 40.35715,40.35715 z" />
      <path
         id="path3688"
         d="m 188.9375,278.75 c -17.33,0 -31.96121,11.538 -36.65625,27.34375 2.8688,11.89354 18.21984,20.96875 36.75,20.96875 18.32217,0 33.54333,-8.86566 36.65625,-20.5625 -4.56361,-16.01346 -19.2723,-27.75 -36.75,-27.75 z"
         style="opacity:0.78181817;fill:#e9eef2;fill-opacity:1;stroke:none" />
    </g>
    <image
       xlink:href="file:///Z:/OpilionEntrada/web/img/ico_proceso.png"
       width="128"
       height="128"
       id="image3690"
       x="265.55078"
       y="61.570099" />
    <path
       d="m 229.28572,317.00504 a 40.357143,40.357143 0 1 1 -80.71429,0 40.357143,40.357143 0 1 1 80.71429,0 z"
       sodipodi:ry="40.357143"
       sodipodi:rx="40.357143"
       sodipodi:cy="317.00504"
       sodipodi:cx="188.92857"
       id="path3694"
       style="opacity:0.78181817;fill:#c7d1db;fill-opacity:1;stroke:#000000;stroke-opacity:0.74901961"
       sodipodi:type="arc"
       transform="matrix(0.71853147,0,0,0.71853147,194.3917,-104.27306)" />
    <path
       transform="matrix(0.68084625,0,0,0.68084625,201.51151,-92.326657)"
       sodipodi:type="arc"
       style="opacity:0.78181816999999998;fill:#e84c4c;fill-opacity:1;stroke:#000000;stroke-opacity:0.74901960999999984"
       id="path3696"
       sodipodi:cx="188.92857"
       sodipodi:cy="317.00504"
       sodipodi:rx="40.357143"
       sodipodi:ry="40.357143"
       d="m 229.28572,317.00504 a 40.357143,40.357143 0 1 1 -80.71429,0 40.357143,40.357143 0 1 1 80.71429,0 z" />
    <path
       id="path3698"
       d="m 330.14924,96.017587 c -12.45215,0 -22.96514,8.290413 -26.33867,19.647343 2.06132,8.54588 13.09153,15.06671 26.40603,15.06671 13.16506,0 24.10194,-6.37026 26.33867,-14.7748 -3.2791,-11.50618 -13.84775,-19.939253 -26.40603,-19.939253 z"
       style="opacity:0.78181816999999998;fill:#d7a397;fill-opacity:1;stroke:none" />
    <image
       y="61.570099"
       x="125.55078"
       id="image3703"
       height="128"
       width="128"
       xlink:href="file:///Z:/OpilionEntrada/web/img/ico_proceso.png" />
    <path
       transform="matrix(0.71853147,0,0,0.71853147,54.3917,-104.27306)"
       sodipodi:type="arc"
       style="opacity:0.78181817;fill:#c7d1db;fill-opacity:1;stroke:#000000;stroke-opacity:0.74901961"
       id="path3705"
       sodipodi:cx="188.92857"
       sodipodi:cy="317.00504"
       sodipodi:rx="40.357143"
       sodipodi:ry="40.357143"
       d="m 229.28572,317.00504 a 40.357143,40.357143 0 1 1 -80.71429,0 40.357143,40.357143 0 1 1 80.71429,0 z" />
    <path
       d="m 229.28572,317.00504 a 40.357143,40.357143 0 1 1 -80.71429,0 40.357143,40.357143 0 1 1 80.71429,0 z"
       sodipodi:ry="40.357143"
       sodipodi:rx="40.357143"
       sodipodi:cy="317.00504"
       sodipodi:cx="188.92857"
       id="path3707"
       style="opacity:0.78181816999999998;fill:#52aa5d;fill-opacity:1;stroke:#000000;stroke-opacity:0.74901960999999984"
       sodipodi:type="arc"
       transform="matrix(0.68084625,0,0,0.68084625,61.51151,-92.326657)" />
    <path
       style="opacity:0.78181816999999998;fill:#7fd96d;fill-opacity:1;stroke:none"
       d="m 190.14924,96.017587 c -12.45215,0 -22.96514,8.290413 -26.33867,19.647343 2.06132,8.54588 13.09153,15.06671 26.40603,15.06671 13.16506,0 24.10194,-6.37026 26.33867,-14.7748 -3.2791,-11.50618 -13.84775,-19.939253 -26.40603,-19.939253 z"
       id="path3709" />
    <image
       y="61.570099"
       x="403.55078"
       id="image3711"
       height="128"
       width="128"
       xlink:href="file:///Z:/OpilionEntrada/web/img/ico_proceso.png" />
    <path
       d="m 229.28572,317.00504 a 40.357143,40.357143 0 1 1 -80.71429,0 40.357143,40.357143 0 1 1 80.71429,0 z"
       sodipodi:ry="40.357143"
       sodipodi:rx="40.357143"
       sodipodi:cy="317.00504"
       sodipodi:cx="188.92857"
       id="path3713"
       style="opacity:0.78181817;fill:#c7d1db;fill-opacity:1;stroke:#000000;stroke-opacity:0.74901961"
       sodipodi:type="arc"
       transform="matrix(0.71853147,0,0,0.71853147,525.3917,-104.27306)" />
    <path
       transform="matrix(0.68084625,0,0,0.68084625,532.51151,-92.326657)"
       sodipodi:type="arc"
       style="opacity:0.78181817;fill:#52aa5d;fill-opacity:1;stroke:#000000;stroke-opacity:0.74901961"
       id="path3715"
       sodipodi:cx="188.92857"
       sodipodi:cy="317.00504"
       sodipodi:rx="40.357143"
       sodipodi:ry="40.357143"
       d="m 229.28572,317.00504 a 40.357143,40.357143 0 1 1 -80.71429,0 40.357143,40.357143 0 1 1 80.71429,0 z" />
    <path
       id="path3717"
       d="m 661.14924,96.017587 c -12.45215,0 -22.96514,8.290413 -26.33867,19.647343 2.06132,8.54588 13.09153,15.06671 26.40603,15.06671 13.16506,0 24.10194,-6.37026 26.33867,-14.7748 -3.2791,-11.50618 -13.84775,-19.939253 -26.40603,-19.939253 z"
       style="opacity:0.78181817;fill:#7fd96d;fill-opacity:1;stroke:none" />
    <path
       transform="matrix(0.71853147,0,0,0.71853147,456.3917,-104.27306)"
       sodipodi:type="arc"
       style="opacity:0.78181817;fill:#c7d1db;fill-opacity:1;stroke:#000000;stroke-opacity:0.74901961"
       id="path3719"
       sodipodi:cx="188.92857"
       sodipodi:cy="317.00504"
       sodipodi:rx="40.357143"
       sodipodi:ry="40.357143"
       d="m 229.28572,317.00504 a 40.357143,40.357143 0 1 1 -80.71429,0 40.357143,40.357143 0 1 1 80.71429,0 z" />
    <path
       d="m 229.28572,317.00504 a 40.357143,40.357143 0 1 1 -80.71429,0 40.357143,40.357143 0 1 1 80.71429,0 z"
       sodipodi:ry="40.357143"
       sodipodi:rx="40.357143"
       sodipodi:cy="317.00504"
       sodipodi:cx="188.92857"
       id="path3721"
       style="opacity:0.78181817;fill:#e84c4c;fill-opacity:1;stroke:#000000;stroke-opacity:0.74901961"
       sodipodi:type="arc"
       transform="matrix(0.68084625,0,0,0.68084625,463.51151,-92.326657)" />
    <path
       style="opacity:0.78181817;fill:#d7a397;fill-opacity:1;stroke:none"
       d="m 592.14924,96.017587 c -12.45215,0 -22.96514,8.290413 -26.33867,19.647343 2.06132,8.54588 13.09153,15.06671 26.40603,15.06671 13.16506,0 24.10194,-6.37026 26.33867,-14.7748 -3.2791,-11.50618 -13.84775,-19.939253 -26.40603,-19.939253 z"
       id="path3723" />
    <path
       transform="matrix(0.71853147,0,0,0.71853147,591.3917,-104.27306)"
       sodipodi:type="arc"
       style="opacity:0.78181817;fill:#c7d1db;fill-opacity:1;stroke:#000000;stroke-opacity:0.74901961"
       id="path3725"
       sodipodi:cx="188.92857"
       sodipodi:cy="317.00504"
       sodipodi:rx="40.357143"
       sodipodi:ry="40.357143"
       d="m 229.28572,317.00504 a 40.357143,40.357143 0 1 1 -80.71429,0 40.357143,40.357143 0 1 1 80.71429,0 z" />
    <path
       d="m 229.28572,317.00504 a 40.357143,40.357143 0 1 1 -80.71429,0 40.357143,40.357143 0 1 1 80.71429,0 z"
       sodipodi:ry="40.357143"
       sodipodi:rx="40.357143"
       sodipodi:cy="317.00504"
       sodipodi:cx="188.92857"
       id="path3727"
       style="opacity:0.78181817;fill:#9ca8b7;fill-opacity:0.95294118;stroke:#000000;stroke-opacity:0.74901961"
       sodipodi:type="arc"
       transform="matrix(0.68084625,0,0,0.68084625,598.51151,-92.326657)" />
    <path
       style="opacity:0.78181817;fill:#dae0e6;fill-opacity:0.98823529;stroke:none"
       d="m 727.14924,96.017587 c -12.45215,0 -22.96514,8.290413 -26.33867,19.647343 2.06132,8.54588 13.09153,15.06671 26.40603,15.06671 13.16506,0 24.10194,-6.37026 26.33867,-14.7748 -3.2791,-11.50618 -13.84775,-19.939253 -26.40603,-19.939253 z"
       id="path3729" />
  </g>
</svg>
